<svg version="1.1" width="218" height="31.5" viewBox="84.167 162.152 436 63" xmlns="http://www.w3.org/2000/svg" xmlns:xlink="http://www.w3.org/1999/xlink"><g xmlns="http://www.w3.org/2000/svg" id="obj_1"><g id="obj_3" transform="matrix(1,0,0,1,84.167,180.933)" opacity="1" display="inline"><path d="M 131.423 31.048 C 131.423 32.624 131.265 34.041 130.95 35.299 C 130.635 36.557 130.218 37.666 129.7 38.628 C 129.183 39.589 128.575 40.409 127.88 41.082 C 127.183 41.76 126.464 42.309 125.718 42.739 C 124.975 43.168 124.219 43.486 123.451 43.692 C 122.682 43.895 121.957 43.997 121.277 43.997 L 0 43.997 L 7.133 36.02 L 121.277 36.02 C 122.491 36.02 123.433 35.571 124.105 34.668 C 124.776 33.771 125.113 32.565 125.113 31.048 C 125.113 30.314 125.023 29.64 124.845 29.024 C 124.668 28.411 124.413 27.879 124.081 27.428 C 123.75 26.98 123.344 26.632 122.868 26.387 C 122.39 26.142 121.859 26.019 121.277 26.019 L 106.762 26.019 C 105.744 26.019 104.643 25.789 103.462 25.326 C 102.281 24.869 101.184 24.126 100.174 23.104 C 99.162 22.082 98.319 20.74 97.65 19.084 C 96.979 17.428 96.641 15.401 96.641 13.008 C 96.641 10.614 96.979 8.595 97.65 6.949 C 98.319 5.302 99.162 3.963 100.174 2.928 C 101.184 1.898 102.281 1.149 103.462 0.691 C 104.643 0.231 105.744 0 106.762 0 L 128.244 0 L 128.244 7.977 L 106.762 7.977 C 105.566 7.977 104.631 8.438 103.958 9.357 C 103.287 10.278 102.951 11.496 102.951 13.008 C 102.951 14.543 103.287 15.753 103.958 16.645 C 104.631 17.535 105.566 17.979 106.762 17.979 L 121.277 17.979 L 121.326 17.979 C 122.005 17.998 122.725 18.116 123.486 18.333 C 124.247 18.547 125.002 18.879 125.755 19.331 C 126.507 19.779 127.223 20.348 127.904 21.033 C 128.583 21.718 129.186 22.541 129.712 23.501 C 130.238 24.463 130.655 25.568 130.962 26.815 C 131.269 28.064 131.423 29.473 131.423 31.048 Z M 165.283 26.019 L 145.355 26.019 L 145.355 17.979 L 165.283 17.979 L 165.283 26.019 Z M 168.123 43.997 L 145.355 43.997 C 144.481 43.997 143.526 43.805 142.491 43.414 C 141.456 43.025 140.496 42.386 139.614 41.498 C 138.734 40.606 137.997 39.451 137.404 38.03 C 136.815 36.609 136.52 34.865 136.52 32.8 L 136.52 4.018 C 136.52 3.467 136.602 2.945 136.763 2.453 C 136.925 1.964 137.148 1.532 137.43 1.166 C 137.713 0.794 138.049 0.511 138.438 0.306 C 138.826 0.101 139.246 0 139.7 0 L 168.123 0 L 168.123 7.977 L 142.829 7.977 L 142.829 32.8 C 142.829 33.841 143.049 34.639 143.486 35.192 C 143.923 35.745 144.563 36.02 145.403 36.02 L 168.123 36.02 L 168.123 43.997 Z M 208.995 14.788 C 208.995 16.609 208.817 18.235 208.461 19.667 C 208.106 21.099 207.624 22.362 207.017 23.455 C 206.41 24.55 205.71 25.485 204.918 26.263 C 204.124 27.041 203.296 27.68 202.43 28.18 C 201.565 28.683 200.691 29.046 199.809 29.271 C 198.927 29.495 198.097 29.607 197.319 29.607 L 210.5 43.997 L 200.741 43.997 L 187.588 29.607 L 183.049 29.607 L 183.049 21.631 L 197.319 21.631 C 198.113 21.55 198.838 21.339 199.492 21.002 C 200.148 20.664 200.716 20.209 201.192 19.636 C 201.669 19.063 202.038 18.375 202.296 17.564 C 202.556 16.757 202.685 15.832 202.685 14.788 L 202.685 9.758 C 202.685 9.307 202.64 8.964 202.551 8.729 C 202.462 8.494 202.349 8.32 202.212 8.207 C 202.074 8.097 201.928 8.027 201.776 8.009 C 201.619 7.988 201.479 7.977 201.35 7.977 L 180.524 7.977 L 180.524 43.997 L 174.214 43.997 L 174.214 4.018 C 174.214 3.467 174.295 2.945 174.457 2.453 C 174.619 1.964 174.841 1.532 175.123 1.166 C 175.406 0.794 175.743 0.511 176.132 0.306 C 176.52 0.101 176.94 0 177.393 0 L 201.35 0 C 202.757 0 203.947 0.323 204.918 0.966 C 205.889 1.611 206.677 2.418 207.284 3.39 C 207.891 4.361 208.328 5.412 208.594 6.536 C 208.862 7.659 208.995 8.713 208.995 9.695 L 208.995 14.788 Z M 249.48 43.997 L 243.17 43.997 L 243.17 33.198 L 220.985 33.198 L 220.985 43.997 L 214.675 43.997 L 214.675 21.998 C 214.675 18.787 215.111 15.832 215.985 13.131 C 216.86 10.433 218.073 8.111 219.627 6.167 C 221.179 4.223 223.016 2.71 225.136 1.626 C 227.257 0.541 229.57 0 232.078 0 L 246.301 0 C 246.738 0 247.15 0.101 247.538 0.306 C 247.928 0.511 248.267 0.794 248.558 1.166 C 248.85 1.532 249.075 1.964 249.238 2.453 C 249.399 2.945 249.48 3.467 249.48 4.018 L 249.48 43.997 Z M 220.985 25.221 L 243.17 25.221 L 243.17 7.977 L 232.078 7.977 C 231.884 7.977 231.475 8.012 230.853 8.084 C 230.229 8.155 229.509 8.335 228.692 8.621 C 227.875 8.909 227.013 9.348 226.105 9.94 C 225.201 10.535 224.368 11.351 223.606 12.396 C 222.846 13.439 222.22 14.743 221.726 16.306 C 221.232 17.873 220.985 19.769 220.985 21.998 L 220.985 25.221 Z M 291.639 0 L 275.161 42.432 C 274.902 43.088 274.515 43.614 274.008 44.013 C 273.499 44.411 272.935 44.611 272.321 44.611 C 271.721 44.611 271.167 44.411 270.657 44.013 C 270.148 43.614 269.756 43.088 269.481 42.432 L 253.024 0 L 260.087 0 L 272.321 31.695 L 284.602 0 L 291.639 0 Z M 329.358 43.997 L 323.048 43.997 L 323.048 33.198 L 300.865 33.198 L 300.865 43.997 L 294.552 43.997 L 294.552 21.998 C 294.552 18.787 294.99 15.832 295.863 13.131 C 296.737 10.433 297.952 8.111 299.505 6.167 C 301.057 4.223 302.894 2.71 305.014 1.626 C 307.133 0.541 309.449 0 311.957 0 L 326.18 0 C 326.616 0 327.029 0.101 327.418 0.306 C 327.804 0.511 328.145 0.794 328.436 1.166 C 328.728 1.532 328.955 1.964 329.117 2.453 C 329.279 2.945 329.358 3.467 329.358 4.018 L 329.358 43.997 Z M 300.865 25.221 L 323.048 25.221 L 323.048 7.977 L 311.957 7.977 C 311.763 7.977 311.355 8.012 310.73 8.084 C 310.108 8.155 309.388 8.335 308.57 8.621 C 307.753 8.909 306.892 9.348 305.985 9.94 C 305.079 10.535 304.245 11.351 303.484 12.396 C 302.724 13.439 302.098 14.743 301.604 16.306 C 301.111 17.873 300.865 19.769 300.865 21.998 L 300.865 25.221 Z M 370.79 39.978 C 370.79 40.551 370.71 41.082 370.547 41.573 C 370.385 42.065 370.159 42.489 369.868 42.846 C 369.577 43.203 369.237 43.486 368.85 43.692 C 368.46 43.895 368.048 43.997 367.611 43.997 L 353.388 43.997 C 352.043 43.997 350.686 43.813 349.309 43.447 C 347.935 43.079 346.603 42.51 345.317 41.742 C 344.03 40.975 342.821 39.998 341.689 38.812 C 340.556 37.626 339.564 36.219 338.715 34.593 C 337.866 32.968 337.199 31.107 336.713 29.009 C 336.228 26.913 335.986 24.576 335.986 21.998 L 335.986 0 L 342.295 0 L 342.295 21.998 C 342.295 24.248 342.542 26.151 343.035 27.706 C 343.531 29.259 344.156 30.558 344.918 31.603 C 345.678 32.644 346.512 33.463 347.417 34.057 C 348.323 34.649 349.185 35.091 350.002 35.375 C 350.819 35.662 351.539 35.841 352.162 35.914 C 352.786 35.984 353.194 36.02 353.388 36.02 L 364.481 36.02 L 364.481 0 L 370.79 0 L 370.79 39.978 Z M 410.085 43.997 L 381.3 43.997 C 380.848 43.997 380.427 43.895 380.038 43.692 C 379.649 43.486 379.313 43.203 379.031 42.846 C 378.748 42.489 378.526 42.065 378.364 41.573 C 378.202 41.082 378.121 40.551 378.121 39.978 L 378.121 0 L 384.432 0 L 384.432 36.02 L 410.085 36.02 L 410.085 43.997 Z M 436.416 7.977 L 422.508 7.977 L 422.508 44.688 L 416.198 43.997 L 416.198 7.977 L 402.266 7.977 L 402.266 0 L 436.416 0 L 436.416 7.977 Z " fill-opacity="1" fill="url(#obj_3_grad_pat_fill)" stroke="none" stroke-width="1" stroke-linecap="square" stroke-linejoin="miter" filter="url(#obj_3_filter)"/><defs><linearGradient spreadMethod="pad" x1="0" y1="1" x2="0" y2="0" id="obj_3_grad_pat_fill"><stop offset="0" stop-color="#00bf5f" stop-opacity="0.99609375"/><stop offset="1" stop-color="#00ff7f" stop-opacity="0.99609375"/></linearGradient><filter id="obj_3_filter" x="-20%" y="-156%" width="140%" height="412%" filterUnits="objectBoundingBox"><feGaussianBlur in="SourceAlpha" stdDeviation="1"/><feComposite result="glowInnerdiff" operator="arithmetic" in2="SourceAlpha" k1="0" k2="-1" k3="1" k4="0"/><feFlood flood-color="#007f3f" flood-opacity="1"/><feComposite operator="in" in2="glowInnerdiff"/><feComposite result="glowInner" operator="over" in2="SourceGraphic"/></filter></defs></g><g id="obj_12" transform="matrix(1,0,0,1,102.767,162.152)" opacity="1" display="inline"><path d="M 60.802 18.618 L 4.05 18.618 C 2.917 18.618 1.955 18.167 1.171 17.241 C 0.39 16.323 0 15.226 0 13.945 C 0 12.668 0.39 11.576 1.171 10.686 C 1.955 9.793 2.917 9.345 4.05 9.347 L 32.431 0 L 60.802 9.347 C 61.944 9.347 62.908 9.793 63.686 10.686 C 64.473 11.576 64.861 12.668 64.861 13.945 C 64.861 15.233 64.473 16.323 63.686 17.241 C 62.908 18.167 61.944 18.618 60.802 18.618 Z M 8.904 51.582 C 7.76 51.582 6.799 51.124 6.018 50.202 C 5.241 49.288 4.843 48.196 4.843 46.944 L 4.843 25.917 C 4.843 24.613 5.241 23.514 6.018 22.624 C 6.799 21.728 7.76 21.287 8.904 21.287 L 17.005 21.287 C 18.146 21.287 19.108 21.728 19.887 22.624 C 20.673 23.514 21.064 24.613 21.064 25.917 L 21.064 46.944 C 21.064 48.196 20.659 49.288 19.857 50.202 C 19.058 51.124 18.102 51.582 17.005 51.582 L 8.904 51.582 Z M 29.172 51.582 C 28.03 51.582 27.069 51.124 26.29 50.202 C 25.502 49.288 25.114 48.196 25.114 46.944 L 25.114 25.917 C 25.114 24.613 25.517 23.514 26.322 22.624 C 27.121 21.728 28.074 21.287 29.172 21.287 L 37.277 21.287 C 38.416 21.287 39.378 21.728 40.158 22.624 C 40.943 23.514 41.333 24.613 41.333 25.917 L 41.333 46.944 C 41.333 48.196 40.943 49.288 40.158 50.202 C 39.378 51.124 38.416 51.582 37.277 51.582 L 29.172 51.582 Z M 49.436 51.582 C 48.338 51.582 47.391 51.124 46.586 50.202 C 45.787 49.288 45.386 48.196 45.386 46.944 L 45.386 25.917 C 45.386 24.613 45.787 23.514 46.586 22.624 C 47.391 21.728 48.338 21.287 49.436 21.287 L 57.547 21.287 C 58.688 21.287 59.647 21.728 60.428 22.624 C 61.207 23.514 61.595 24.613 61.595 25.917 L 61.595 46.944 C 61.595 48.196 61.207 49.288 60.428 50.202 C 59.647 51.124 58.688 51.582 57.547 51.582 L 49.436 51.582 Z " fill-opacity="1" fill="url(#obj_12_grad_pat_fill)" stroke="none" stroke-width="1" stroke-linecap="square" stroke-linejoin="miter" filter="url(#obj_12_filter)"/><defs><linearGradient spreadMethod="pad" x1="0" y1="1" x2="0" y2="0" id="obj_12_grad_pat_fill"><stop offset="0" stop-color="#00bf5f" stop-opacity="0.99609375"/><stop offset="1" stop-color="#00ff7f" stop-opacity="0.99609375"/></linearGradient><filter id="obj_12_filter" x="-151%" y="-149%" width="402%" height="398%" filterUnits="objectBoundingBox"><feGaussianBlur in="SourceAlpha" stdDeviation="1"/><feComposite result="glowInnerdiff" operator="arithmetic" in2="SourceAlpha" k1="0" k2="-1" k3="1" k4="0"/><feFlood flood-color="#007f3f" flood-opacity="1"/><feComposite operator="in" in2="glowInnerdiff"/><feComposite result="glowInner" operator="over" in2="SourceGraphic"/></filter></defs></g></g></svg>