<?xml version="1.0"?>
<svg width="436" height="63" xmlns="http://www.w3.org/2000/svg" xmlns:svg="http://www.w3.org/2000/svg">
 <g class="layer">
  <title>Layer 1</title>
  <g id="obj_1" xmlns="http://www.w3.org/2000/svg">
   <g display="inline" id="obj_3" transform="matrix(0.993126 0 0 0.590351 83.5964 107.286)">
    <path d="m48.423,-129.952c0,1.576 -0.158,2.993 -0.473,4.251c-0.315,1.258 -0.732,2.367 -1.25,3.329c-0.517,0.961 -1.125,1.781 -1.82,2.454c-0.697,0.678 -1.416,1.227 -2.162,1.657c-0.743,0.429 -1.499,0.747 -2.267,0.953c-0.769,0.203 -1.494,0.305 -2.174,0.305l-121.277,0l7.133,-7.977l114.144,0c1.214,0 2.156,-0.449 2.828,-1.352c0.671,-0.897 1.008,-2.103 1.008,-3.62c0,-0.734 -0.09,-1.408 -0.268,-2.024c-0.177,-0.613 -0.432,-1.145 -0.764,-1.596c-0.331,-0.448 -0.737,-0.796 -1.213,-1.041c-0.478,-0.245 -1.009,-0.368 -1.591,-0.368l-14.515,0c-1.018,0 -2.119,-0.23 -3.3,-0.693c-1.181,-0.457 -2.278,-1.2 -3.288,-2.222c-1.012,-1.022 -1.855,-2.364 -2.524,-4.02c-0.671,-1.656 -1.009,-3.683 -1.009,-6.076c0,-2.394 0.338,-4.413 1.009,-6.059c0.669,-1.647 1.512,-2.986 2.524,-4.021c1.01,-1.03 2.107,-1.779 3.288,-2.237c1.181,-0.46 2.282,-0.691 3.3,-0.691l21.482,0l0,7.977l-21.482,0c-1.196,0 -2.131,0.461 -2.804,1.38c-0.671,0.921 -1.007,2.139 -1.007,3.651c0,1.535 0.336,2.745 1.007,3.637c0.673,0.89 1.608,1.334 2.804,1.334l14.515,0l0.049,0c0.679,0.019 1.399,0.137 2.16,0.354c0.761,0.214 1.516,0.546 2.269,0.998c0.752,0.448 1.468,1.017 2.149,1.702c0.679,0.685 1.282,1.508 1.808,2.468c0.526,0.962 0.943,2.067 1.25,3.314c0.307,1.249 0.461,2.658 0.461,4.233zm33.86,-5.029l-19.928,0l0,-8.04l19.928,0l0,8.04zm2.84,17.978l-22.768,0c-0.874,0 -1.829,-0.192 -2.864,-0.583c-1.035,-0.389 -1.995,-1.028 -2.877,-1.916c-0.88,-0.892 -1.617,-2.047 -2.21,-3.468c-0.589,-1.421 -0.884,-3.165 -0.884,-5.23l0,-28.782c0,-0.551 0.082,-1.073 0.243,-1.565c0.162,-0.489 0.385,-0.921 0.667,-1.287c0.283,-0.372 0.619,-0.655 1.008,-0.86c0.388,-0.205 0.808,-0.306 1.262,-0.306l28.423,0l0,7.977l-25.294,0l0,24.823c0,1.041 0.22,1.839 0.657,2.392c0.437,0.553 1.077,0.828 1.917,0.828l22.72,0l0,7.977zm40.872,-29.209c0,1.821 -0.178,3.447 -0.534,4.879c-0.355,1.432 -0.837,2.695 -1.444,3.788c-0.607,1.095 -1.307,2.03 -2.099,2.808c-0.794,0.778 -1.622,1.417 -2.488,1.917c-0.865,0.503 -1.739,0.866 -2.621,1.091c-0.882,0.224 -1.712,0.336 -2.49,0.336l13.181,14.39l-9.759,0l-13.153,-14.39l-4.539,0l0,-7.976l14.27,0c0.794,-0.081 1.519,-0.292 2.173,-0.629c0.656,-0.338 1.224,-0.793 1.7,-1.366c0.477,-0.573 0.846,-1.261 1.104,-2.072c0.26,-0.807 0.389,-1.732 0.389,-2.776l0,-5.03c0,-0.451 -0.045,-0.794 -0.134,-1.029c-0.089,-0.235 -0.202,-0.409 -0.339,-0.522c-0.138,-0.11 -0.284,-0.18 -0.436,-0.198c-0.157,-0.021 -0.297,-0.032 -0.426,-0.032l-20.826,0l0,36.02l-6.31,0l0,-39.979c0,-0.551 0.081,-1.073 0.243,-1.565c0.162,-0.489 0.384,-0.921 0.666,-1.287c0.283,-0.372 0.62,-0.655 1.009,-0.86c0.388,-0.205 0.808,-0.306 1.261,-0.306l23.957,0c1.407,0 2.597,0.323 3.568,0.966c0.971,0.645 1.759,1.452 2.366,2.424c0.607,0.971 1.044,2.022 1.31,3.146c0.268,1.123 0.401,2.177 0.401,3.159l0,5.093zm40.485,29.209l-6.31,0l0,-10.799l-22.185,0l0,10.799l-6.31,0l0,-21.999c0,-3.211 0.436,-6.166 1.31,-8.867c0.875,-2.698 2.088,-5.02 3.642,-6.964c1.552,-1.944 3.389,-3.457 5.509,-4.541c2.121,-1.085 4.434,-1.626 6.942,-1.626l14.223,0c0.437,0 0.849,0.101 1.237,0.306c0.39,0.205 0.729,0.488 1.02,0.86c0.292,0.366 0.517,0.798 0.68,1.287c0.161,0.492 0.242,1.014 0.242,1.565l0,39.979zm-28.495,-18.776l22.185,0l0,-17.244l-11.092,0c-0.194,0 -0.603,0.035 -1.225,0.107c-0.624,0.071 -1.344,0.251 -2.161,0.537c-0.817,0.288 -1.679,0.727 -2.587,1.319c-0.904,0.595 -1.737,1.411 -2.499,2.456c-0.76,1.043 -1.386,2.347 -1.88,3.91c-0.494,1.567 -0.741,3.463 -0.741,5.692l0,3.223zm70.654,-25.221l-16.478,42.432c-0.259,0.656 -0.646,1.182 -1.153,1.581c-0.509,0.398 -1.073,0.598 -1.687,0.598c-0.6,0 -1.154,-0.2 -1.664,-0.598c-0.509,-0.399 -0.901,-0.925 -1.176,-1.581l-16.457,-42.432l7.063,0l12.234,31.695l12.281,-31.695l7.037,0zm37.719,43.997l-6.31,0l0,-10.799l-22.183,0l0,10.799l-6.313,0l0,-21.999c0,-3.211 0.438,-6.166 1.311,-8.867c0.874,-2.698 2.089,-5.02 3.642,-6.964c1.552,-1.944 3.389,-3.457 5.509,-4.541c2.119,-1.085 4.435,-1.626 6.943,-1.626l14.223,0c0.436,0 0.849,0.101 1.238,0.306c0.386,0.205 0.727,0.488 1.018,0.86c0.292,0.366 0.519,0.798 0.681,1.287c0.162,0.492 0.241,1.014 0.241,1.565l0,39.979zm-28.493,-18.776l22.183,0l0,-17.244l-11.091,0c-0.194,0 -0.602,0.035 -1.227,0.107c-0.622,0.071 -1.342,0.251 -2.16,0.537c-0.817,0.288 -1.678,0.727 -2.585,1.319c-0.906,0.595 -1.74,1.411 -2.501,2.456c-0.76,1.043 -1.386,2.347 -1.88,3.91c-0.493,1.567 -0.739,3.463 -0.739,5.692l0,3.223zm69.925,14.757c0,0.573 -0.08,1.104 -0.243,1.595c-0.162,0.492 -0.388,0.916 -0.679,1.273c-0.291,0.357 -0.631,0.64 -1.018,0.846c-0.39,0.203 -0.802,0.305 -1.239,0.305l-14.223,0c-1.345,0 -2.702,-0.184 -4.079,-0.55c-1.374,-0.368 -2.706,-0.937 -3.992,-1.705c-1.287,-0.767 -2.496,-1.744 -3.628,-2.93c-1.133,-1.186 -2.125,-2.593 -2.974,-4.219c-0.849,-1.625 -1.516,-3.486 -2.002,-5.584c-0.485,-2.096 -0.727,-4.433 -0.727,-7.011l0,-21.998l6.309,0l0,21.998c0,2.25 0.247,4.153 0.74,5.708c0.496,1.553 1.121,2.852 1.883,3.897c0.76,1.041 1.594,1.86 2.499,2.454c0.906,0.592 1.768,1.034 2.585,1.318c0.817,0.287 1.537,0.466 2.16,0.539c0.624,0.07 1.032,0.106 1.226,0.106l11.093,0l0,-36.02l6.309,0l0,39.978zm39.295,4.019l-28.785,0c-0.452,0 -0.873,-0.102 -1.262,-0.305c-0.389,-0.206 -0.725,-0.489 -1.007,-0.846c-0.283,-0.357 -0.505,-0.781 -0.667,-1.273c-0.162,-0.491 -0.243,-1.022 -0.243,-1.595l0,-39.978l6.311,0l0,36.02l25.653,0l0,7.977zm26.331,-36.02l-13.908,0l0,36.711l-6.31,-0.691l0,-36.02l-13.932,0l0,-7.977l34.15,0l0,7.977z" fill="url(#obj_3_grad_pat_fill)" filter="url(#obj_3_filter)" id="svg_1" stroke-linecap="square"/>
    <defs>
     <linearGradient id="obj_3_grad_pat_fill" spreadMethod="pad" x1="0" x2="0" y1="1" y2="0">
      <stop offset="0" stop-color="#00bf5f" stop-opacity="0.996094"/>
      <stop offset="1" stop-color="#00ff7f" stop-opacity="0.996094"/>
     </linearGradient>
     <filter filterUnits="objectBoundingBox" height="412%" id="obj_3_filter" width="140%" x="-20%" y="-156%">
      <feGaussianBlur stdDeviation="1"/>
     </filter>
    </defs>
   </g>
   <g display="inline" id="obj_12" transform="matrix(0.993126 0 0 0.590351 102.069 96.1985)">
    <path d="m-22.198,-142.382l-56.752,0c-1.133,0 -2.095,-0.451 -2.879,-1.377c-0.781,-0.918 -1.171,-2.015 -1.171,-3.296c0,-1.277 0.39,-2.369 1.171,-3.259c0.784,-0.893 1.746,-1.341 2.879,-1.339l28.381,-9.347l28.371,9.347c1.142,0 2.106,0.446 2.884,1.339c0.787,0.89 1.175,1.982 1.175,3.259c0,1.288 -0.388,2.378 -1.175,3.296c-0.778,0.926 -1.742,1.377 -2.884,1.377zm-51.898,32.964c-1.144,0 -2.105,-0.458 -2.886,-1.38c-0.777,-0.914 -1.175,-2.006 -1.175,-3.258l0,-21.027c0,-1.304 0.398,-2.403 1.175,-3.293c0.781,-0.896 1.742,-1.337 2.886,-1.337l8.101,0c1.141,0 2.103,0.441 2.882,1.337c0.786,0.89 1.177,1.989 1.177,3.293l0,21.027c0,1.252 -0.405,2.344 -1.207,3.258c-0.799,0.922 -1.755,1.38 -2.852,1.38l-8.101,0zm20.268,0c-1.142,0 -2.103,-0.458 -2.882,-1.38c-0.788,-0.914 -1.176,-2.006 -1.176,-3.258l0,-21.027c0,-1.304 0.403,-2.403 1.208,-3.293c0.799,-0.896 1.752,-1.337 2.85,-1.337l8.105,0c1.139,0 2.101,0.441 2.881,1.337c0.785,0.89 1.175,1.989 1.175,3.293l0,21.027c0,1.252 -0.39,2.344 -1.175,3.258c-0.78,0.922 -1.742,1.38 -2.881,1.38l-8.105,0zm20.264,0c-1.098,0 -2.045,-0.458 -2.85,-1.38c-0.799,-0.914 -1.2,-2.006 -1.2,-3.258l0,-21.027c0,-1.304 0.401,-2.403 1.2,-3.293c0.805,-0.896 1.752,-1.337 2.85,-1.337l8.111,0c1.141,0 2.1,0.441 2.881,1.337c0.779,0.89 1.167,1.989 1.167,3.293l0,21.027c0,1.252 -0.388,2.344 -1.167,3.258c-0.781,0.922 -1.74,1.38 -2.881,1.38l-8.111,0z" fill="url(#obj_12_grad_pat_fill)" filter="url(#obj_12_filter)" id="svg_2" stroke-linecap="square"/>
    <defs>
     <linearGradient id="obj_12_grad_pat_fill" spreadMethod="pad" x1="0" x2="0" y1="1" y2="0">
      <stop offset="0" stop-color="#00bf5f" stop-opacity="0.996094"/>
      <stop offset="1" stop-color="#00ff7f" stop-opacity="0.996094"/>
     </linearGradient>
     <filter filterUnits="objectBoundingBox" height="398%" id="obj_12_filter" width="402%" x="-151%" y="-149%">
      <feGaussianBlur stdDeviation="1"/>
     </filter>
    </defs>
   </g>
  </g>
  <text fill="#ffffff" font-family="Sans-serif" font-size="24" id="svg_3" stroke="#000000" stroke-width="0" text-anchor="middle" transform="matrix(1.85791 0 0 0.940796 37.8142 2)" x="101.75" xml:space="preserve" y="58.8125">Open Source</text>
 </g>
</svg>